{"asset":{"version":"2.0","generator":"Blockbench 5.0.7 glTF exporter"},"scenes":[{"nodes":[21],"name":"blockbench_export"}],"scene":0,"nodes":[{"translation":[0,1,0],"name":"beveled_cuboid","mesh":0},{"name":"beveled_cuboid","mesh":1},{"translation":[1.25,1.375,-0.25],"name":"ПРАВАЯ_РУКА2","children":[0,1]},{"translation":[-1.375,-0.90625,0.125],"name":"beveled_cuboid","mesh":2},{"translation":[-1.375,-0.03125,0.125],"name":"beveled_cuboid","mesh":3},{"translation":[0.921875,2.40625,-0.375],"name":"ЛЕВАЯ_РУКА2","children":[3,4]},{"translation":[-0.171875,0.65625,-0.078125],"name":"cube","mesh":4},{"translation":[0.015625,0.9375,-0.28125],"name":"beveled_cuboid","mesh":5},{"name":"beveled_cuboid","mesh":6},{"name":"ЛЕВАЯ_НОГА2","children":[6,7,8]},{"translation":[-0.1875,0.65625,-0.078125],"name":"cube","mesh":7},{"translation":[0,0.9375,-0.265625],"name":"beveled_cuboid","mesh":8},{"name":"beveled_cuboid","mesh":9},{"name":"beveled_cuboid2","children":[10,11,12]},{"translation":[0.765625,0,0],"name":"ПРАВАЯ_НОГА2","children":[13]},{"name":"cube","mesh":10},{"translation":[-0.1875,0.28125,-0.1875],"name":"beveled_cuboid","mesh":11},{"name":"group3","children":[15,16]},{"translation":[0.5625,2.15625,-0.0625],"name":"ТЕЛО2","children":[17]},{"name":"beveled_cuboid","mesh":12},{"translation":[0.34375,3.75,-0.25],"name":"ГОЛОВА2","children":[19]},{"translation":[-0.328125,-0.25,0],"name":"антетон","children":[2,5,9,14,18,20]}],"bufferViews":[{"buffer":0,"byteOffset":0,"byteLength":1152,"target":34962,"byteStride":12},{"buffer":0,"byteOffset":1152,"byteLength":1152,"target":34962,"byteStride":12},{"buffer":0,"byteOffset":2304,"byteLength":768,"target":34962,"byteStride":8},{"buffer":0,"byteOffset":3072,"byteLength":264,"target":34963},{"buffer":0,"byteOffset":3336,"byteLength":1152,"target":34962,"byteStride":12},{"buffer":0,"byteOffset":4488,"byteLength":1152,"target":34962,"byteStride":12},{"buffer":0,"byteOffset":5640,"byteLength":768,"target":34962,"byteStride":8},{"buffer":0,"byteOffset":6408,"byteLength":264,"target":34963},{"buffer":0,"byteOffset":6672,"byteLength":1152,"target":34962,"byteStride":12},{"buffer":0,"byteOffset":7824,"byteLength":1152,"target":34962,"byteStride":12},{"buffer":0,"byteOffset":8976,"byteLength":768,"target":34962,"byteStride":8},{"buffer":0,"byteOffset":9744,"byteLength":264,"target":34963},{"buffer":0,"byteOffset":10008,"byteLength":1152,"target":34962,"byteStride":12},{"buffer":0,"byteOffset":11160,"byteLength":1152,"target":34962,"byteStride":12},{"buffer":0,"byteOffset":12312,"byteLength":768,"target":34962,"byteStride":8},{"buffer":0,"byteOffset":13080,"byteLength":264,"target":34963},{"buffer":0,"byteOffset":13344,"byteLength":288,"target":34962,"byteStride":12},{"buffer":0,"byteOffset":13632,"byteLength":288,"target":34962,"byteStride":12},{"buffer":0,"byteOffset":13920,"byteLength":192,"target":34962,"byteStride":8},{"buffer":0,"byteOffset":14112,"byteLength":72,"target":34963},{"buffer":0,"byteOffset":14184,"byteLength":1152,"target":34962,"byteStride":12},{"buffer":0,"byteOffset":15336,"byteLength":1152,"target":34962,"byteStride":12},{"buffer":0,"byteOffset":16488,"byteLength":768,"target":34962,"byteStride":8},{"buffer":0,"byteOffset":17256,"byteLength":264,"target":34963},{"buffer":0,"byteOffset":17520,"byteLength":1152,"target":34962,"byteStride":12},{"buffer":0,"byteOffset":18672,"byteLength":1152,"target":34962,"byteStride":12},{"buffer":0,"byteOffset":19824,"byteLength":768,"target":34962,"byteStride":8},{"buffer":0,"byteOffset":20592,"byteLength":264,"target":34963},{"buffer":0,"byteOffset":20856,"byteLength":288,"target":34962,"byteStride":12},{"buffer":0,"byteOffset":21144,"byteLength":288,"target":34962,"byteStride":12},{"buffer":0,"byteOffset":21432,"byteLength":192,"target":34962,"byteStride":8},{"buffer":0,"byteOffset":21624,"byteLength":72,"target":34963},{"buffer":0,"byteOffset":21696,"byteLength":1152,"target":34962,"byteStride":12},{"buffer":0,"byteOffset":22848,"byteLength":1152,"target":34962,"byteStride":12},{"buffer":0,"byteOffset":24000,"byteLength":768,"target":34962,"byteStride":8},{"buffer":0,"byteOffset":24768,"byteLength":264,"target":34963},{"buffer":0,"byteOffset":25032,"byteLength":1152,"target":34962,"byteStride":12},{"buffer":0,"byteOffset":26184,"byteLength":1152,"target":34962,"byteStride":12},{"buffer":0,"byteOffset":27336,"byteLength":768,"target":34962,"byteStride":8},{"buffer":0,"byteOffset":28104,"byteLength":264,"target":34963},{"buffer":0,"byteOffset":28368,"byteLength":288,"target":34962,"byteStride":12},{"buffer":0,"byteOffset":28656,"byteLength":288,"target":34962,"byteStride":12},{"buffer":0,"byteOffset":28944,"byteLength":192,"target":34962,"byteStride":8},{"buffer":0,"byteOffset":29136,"byteLength":72,"target":34963},{"buffer":0,"byteOffset":29208,"byteLength":1152,"target":34962,"byteStride":12},{"buffer":0,"byteOffset":30360,"byteLength":1152,"target":34962,"byteStride":12},{"buffer":0,"byteOffset":31512,"byteLength":768,"target":34962,"byteStride":8},{"buffer":0,"byteOffset":32280,"byteLength":264,"target":34963},{"buffer":0,"byteOffset":32544,"byteLength":1152,"target":34962,"byteStride":12},{"buffer":0,"byteOffset":33696,"byteLength":1152,"target":34962,"byteStride":12},{"buffer":0,"byteOffset":34848,"byteLength":768,"target":34962,"byteStride":8},{"buffer":0,"byteOffset":35616,"byteLength":264,"target":34963}],"buffers":[{"byteLength":35880,"uri":"data:application/octet-stream;base64,"}],"accessors":[{"bufferView":0,"componentType":5126,"count":96,"max":[0.25,1.25,0.25],"min":[-0.25,-0.25,-0.25],"type":"VEC3"},{"bufferView":1,"componentType":5126,"count":96,"max":[1,1,1],"min":[-1,-1,-1],"type":"VEC3"},{"bufferView":2,"componentType":5126,"count":96,"max":[0.7867749929428101,0.9850171804428101],"min":[0,0.4375],"type":"VEC2"},{"bufferView":3,"componentType":5123,"count":132,"max":[95],"min":[0],"type":"SCALAR"},{"bufferView":4,"componentType":5126,"count":96,"max":[0.25,0.75,0.25],"min":[-0.25,0.25,-0.25],"type":"VEC3"},{"bufferView":5,"componentType":5126,"count":96,"max":[1,1,1],"min":[-1,-1,-1],"type":"VEC3"},{"bufferView":6,"componentType":5126,"count":96,"max":[0.8934565782546997,0.8336501121520996],"min":[0.3125,0],"type":"VEC2"},{"bufferView":7,"componentType":5123,"count":132,"max":[95],"min":[0],"type":"SCALAR"},{"bufferView":8,"componentType":5126,"count":96,"max":[0.25,0.75,0.25],"min":[-0.25,0.25,-0.25],"type":"VEC3"},{"bufferView":9,"componentType":5126,"count":96,"max":[1,1,1],"min":[-1,-1,-1],"type":"VEC3"},{"bufferView":10,"componentType":5126,"count":96,"max":[0.8934565782546997,0.875],"min":[0,0.625],"type":"VEC2"},{"bufferView":11,"componentType":5123,"count":132,"max":[95],"min":[0],"type":"SCALAR"},{"bufferView":12,"componentType":5126,"count":96,"max":[0.25,1.25,0.25],"min":[-0.25,-0.25,-0.25],"type":"VEC3"},{"bufferView":13,"componentType":5126,"count":96,"max":[1,1,1],"min":[-1,-1,-1],"type":"VEC3"},{"bufferView":14,"componentType":5126,"count":96,"max":[0.8023999929428101,0.9928296804428101],"min":[0.12728750705718994,0],"type":"VEC2"},{"bufferView":15,"componentType":5123,"count":132,"max":[95],"min":[0],"type":"SCALAR"},{"bufferView":16,"componentType":5126,"count":24,"max":[0.421875,0.125,0.0625],"min":[-0.078125,0,-0.4375],"type":"VEC3"},{"bufferView":17,"componentType":5126,"count":24,"max":[1,1,1],"min":[-1,-1,-1],"type":"VEC3"},{"bufferView":18,"componentType":5126,"count":24,"max":[0.84375,0.578125],"min":[0.4296875,0],"type":"VEC2"},{"bufferView":19,"componentType":5123,"count":36,"max":[23],"min":[0],"type":"SCALAR"},{"bufferView":20,"componentType":5126,"count":96,"max":[0.25,1.25,0.25],"min":[-0.25,-0.25,-0.25],"type":"VEC3"},{"bufferView":21,"componentType":5126,"count":96,"max":[1,1,1],"min":[-1,-1,-1],"type":"VEC3"},{"bufferView":22,"componentType":5126,"count":96,"max":[0.8203125,0.9928296804428101],"min":[0.171875,0],"type":"VEC2"},{"bufferView":23,"componentType":5123,"count":132,"max":[95],"min":[0],"type":"SCALAR"},{"bufferView":24,"componentType":5126,"count":96,"max":[0.25,0.6875,0.5],"min":[-0.25,0.3125,-0.5],"type":"VEC3"},{"bufferView":25,"componentType":5126,"count":96,"max":[1,1,1],"min":[-1,-1,-1],"type":"VEC3"},{"bufferView":26,"componentType":5126,"count":96,"max":[0.9399275183677673,0.8203125],"min":[0.4296875,0.0703125],"type":"VEC2"},{"bufferView":27,"componentType":5123,"count":132,"max":[95],"min":[0],"type":"SCALAR"},{"bufferView":28,"componentType":5126,"count":24,"max":[0.421875,0.125,0.0625],"min":[-0.078125,0,-0.4375],"type":"VEC3"},{"bufferView":29,"componentType":5126,"count":24,"max":[1,1,1],"min":[-1,-1,-1],"type":"VEC3"},{"bufferView":30,"componentType":5126,"count":24,"max":[0.84375,0.578125],"min":[0.4296875,0],"type":"VEC2"},{"bufferView":31,"componentType":5123,"count":36,"max":[23],"min":[0],"type":"SCALAR"},{"bufferView":32,"componentType":5126,"count":96,"max":[0.25,1.25,0.25],"min":[-0.25,-0.25,-0.25],"type":"VEC3"},{"bufferView":33,"componentType":5126,"count":96,"max":[1,1,1],"min":[-1,-1,-1],"type":"VEC3"},{"bufferView":34,"componentType":5126,"count":96,"max":[0.5703125,0.9772046804428101],"min":[0.2265625,0.2109375],"type":"VEC2"},{"bufferView":35,"componentType":5123,"count":132,"max":[95],"min":[0],"type":"SCALAR"},{"bufferView":36,"componentType":5126,"count":96,"max":[0.25,0.6875,0.5],"min":[-0.25,0.3125,-0.5],"type":"VEC3"},{"bufferView":37,"componentType":5126,"count":96,"max":[1,1,1],"min":[-1,-1,-1],"type":"VEC3"},{"bufferView":38,"componentType":5126,"count":96,"max":[0.9399275183677673,0.8203125],"min":[0.4296875,0.0703125],"type":"VEC2"},{"bufferView":39,"componentType":5123,"count":132,"max":[95],"min":[0],"type":"SCALAR"},{"bufferView":40,"componentType":5126,"count":24,"max":[0.4375,0.140625,0.078125],"min":[-0.8125,0,-0.453125],"type":"VEC3"},{"bufferView":41,"componentType":5126,"count":24,"max":[1,1,1],"min":[-1,-1,-1],"type":"VEC3"},{"bufferView":42,"componentType":5126,"count":24,"max":[0.84765625,0.48046875],"min":[0.265625,0.1328125],"type":"VEC2"},{"bufferView":43,"componentType":5123,"count":36,"max":[23],"min":[0],"type":"SCALAR"},{"bufferView":44,"componentType":5126,"count":96,"max":[0.609375,1.25,0.25],"min":[-0.609375,-0.25,-0.25],"type":"VEC3"},{"bufferView":45,"componentType":5126,"count":96,"max":[1,1,1],"min":[-1,-1,-1],"type":"VEC3"},{"bufferView":46,"componentType":5126,"count":96,"max":[0.859375,0.78125],"min":[0,0],"type":"VEC2"},{"bufferView":47,"componentType":5123,"count":132,"max":[95],"min":[0],"type":"SCALAR"},{"bufferView":48,"componentType":5126,"count":96,"max":[0.5625,1.0625,0.4375],"min":[-0.5625,-0.0625,-0.4375],"type":"VEC3"},{"bufferView":49,"componentType":5126,"count":96,"max":[1,1,1],"min":[-1,-1,-1],"type":"VEC3"},{"bufferView":50,"componentType":5126,"count":96,"max":[0.9097272157669067,0.796875],"min":[0,0],"type":"VEC2"},{"bufferView":51,"componentType":5123,"count":132,"max":[95],"min":[0],"type":"SCALAR"}],"materials":[{"pbrMetallicRoughness":{"metallicFactor":0,"roughnessFactor":1,"baseColorTexture":{"index":0}},"alphaMode":"MASK","alphaCutoff":0.05,"doubleSided":true},{"pbrMetallicRoughness":{"metallicFactor":0,"roughnessFactor":1,"baseColorTexture":{"index":1}},"alphaMode":"MASK","alphaCutoff":0.05,"doubleSided":true}],"textures":[{"sampler":0,"source":0,"name":"texture.png"},{"sampler":1,"source":1,"name":"texture.png"}],"samplers":[{"magFilter":9728,"minFilter":9728,"wrapS":33071,"wrapT":33071},{"magFilter":9728,"minFilter":9728,"wrapS":33071,"wrapT":33071}],"images":[{"mimeType":"image/png","uri":"data:image/png;base64,"},{"mimeType":"image/png","uri":"data:image/png;base64,"}],"meshes":[{"primitives":[{"mode":4,"attributes":{"POSITION":0,"NORMAL":1,"TEXCOORD_0":2},"indices":3,"material":0}]},{"primitives":[{"mode":4,"attributes":{"POSITION":4,"NORMAL":5,"TEXCOORD_0":6},"indices":7,"material":0}]},{"primitives":[{"mode":4,"attributes":{"POSITION":8,"NORMAL":9,"TEXCOORD_0":10},"indices":11,"material":0}]},{"primitives":[{"mode":4,"attributes":{"POSITION":12,"NORMAL":13,"TEXCOORD_0":14},"indices":15,"material":0}]},{"primitives":[{"mode":4,"attributes":{"POSITION":16,"NORMAL":17,"TEXCOORD_0":18},"indices":19,"material":1}]},{"primitives":[{"mode":4,"attributes":{"POSITION":20,"NORMAL":21,"TEXCOORD_0":22},"indices":23,"material":0}]},{"primitives":[{"mode":4,"attributes":{"POSITION":24,"NORMAL":25,"TEXCOORD_0":26},"indices":27,"material":0}]},{"primitives":[{"mode":4,"attributes":{"POSITION":28,"NORMAL":29,"TEXCOORD_0":30},"indices":31,"material":1}]},{"primitives":[{"mode":4,"attributes":{"POSITION":32,"NORMAL":33,"TEXCOORD_0":34},"indices":35,"material":0}]},{"primitives":[{"mode":4,"attributes":{"POSITION":36,"NORMAL":37,"TEXCOORD_0":38},"indices":39,"material":0}]},{"primitives":[{"mode":4,"attributes":{"POSITION":40,"NORMAL":41,"TEXCOORD_0":42},"indices":43,"material":1}]},{"primitives":[{"mode":4,"attributes":{"POSITION":44,"NORMAL":45,"TEXCOORD_0":46},"indices":47,"material":0}]},{"primitives":[{"mode":4,"attributes":{"POSITION":48,"NORMAL":49,"TEXCOORD_0":50},"indices":51,"material":0}]}]}